# xmcd
# Track frame offsets:
# 180
# 12921
# 30515
# 43547
# 56871
# 71907
# 87830
# 102096
# 120094
# 134080
# 147287
# 161852
#
# Disc length: 2369 seconds
# Revision: 0
# Processed by: cddbd v1.4PL0 Copyright (c) Steve Scherf et al.
# Submitted via: VisiTrax 2.9.5.180 - For more info visit www.synapsa.com
#
DISCID=a4093f0c
DTITLE=Tony Martin - I'll meet you in Texas
DYEAR=1996
DGENRE=
TTITLE0=Honky tonkin' love affairs
TTITLE1=If leavin' was easy
TTITLE2=Highway of love
TTITLE3=What did you expect me to do
TTITLE4=Back in Tupelo
TTITLE5=Palace walls
TTITLE6=Just in time for the blues
TTITLE7=Where love started out
TTITLE8=Please don't do that anymore
TTITLE9=Sour grapes
TTITLE10=It's all over town
TTITLE11=She's in Texas tonight
EXTD=
EXTT0=
EXTT1=
EXTT2=
EXTT3=
EXTT4=
EXTT5=
EXTT6=
EXTT7=
EXTT8=
EXTT9=
EXTT10=
EXTT11=
PLAYORDER=
